<?xml version="1.0" encoding="utf-8"?>
<!-- Generator: Adobe Illustrator 16.0.0, SVG Export Plug-In . SVG Version: 6.00 Build 0)  -->
<!DOCTYPE svg PUBLIC "-//W3C//DTD SVG 1.1//EN" "http://www.w3.org/Graphics/SVG/1.1/DTD/svg11.dtd">
<svg version="1.1" id="Layer_1" xmlns="http://www.w3.org/2000/svg" xmlns:xlink="http://www.w3.org/1999/xlink" x="0px" y="0px"
	 width="800px" height="800px" viewBox="0 0 800 800" enable-background="new 0 0 800 800" xml:space="preserve">
<g>
	<path fill-rule="evenodd" clip-rule="evenodd" d="M714.688,269.976c-2.76,3.946-6.124,11.522-11.789,16.461
		C559.036,411.785,414.883,536.808,270.966,662.092c-10.188,8.874-18.872,11.21-28.482-0.072
		c-60.973-71.564-60.973-71.564-92.12-124.259c-7.837-13.262,359.14-309.422,466.063-402.277
		c24.85-21.582,25.98-21.547,45.853,5.931C689.352,178.834,707.186,220.14,714.688,269.976z"/>
	<path fill-rule="evenodd" clip-rule="evenodd" fill="#FFCC00" d="M400.57,7.722c64.902-0.115,123.594,19.279,178.036,52.914
		c26.888,16.609,28.165,26.768,4.822,47.224c-93.613,82.018-187.618,163.578-281.453,245.34
		c-14.138,12.318-165.42,152.624-168.132,148.222c-39.944-64.832-48.603-186.468-48.532-196.516
		c0.786-115.232,81.753-229.069,193.372-272.144c19.385-7.48,39.523-13.699,59.858-17.837
		C358.865,10.787,379.867,9.985,400.57,7.722z"/>
	<path fill-rule="evenodd" clip-rule="evenodd" fill="#FFCC00" d="M714.22,361.935c-9.15,70.236-33.832,130.733-68.491,187.051
		c-58.302,94.743-135.688,171.51-226.026,235.84c-11.984,8.534-21.539,10.805-33.559,1.131
		c-27.261-21.935-55.114-43.124-82.466-64.942c-14.298-11.41-13.8-22.194,0.542-34.546
		C422.268,584.845,539.972,482.82,657.743,380.881c10.709-9.268,20.633-19.566,32.06-27.809c4.524-3.259,12.929-4.315,18.109-2.411
		C711.736,352.067,713.191,359.904,714.22,361.935z"/>
	<path fill-rule="evenodd" clip-rule="evenodd" fill="#143270" d="M242.772,661.89"/>
	<g>
		<g>
			<polygon fill="#FFFFFF" points="214.66,601.334 240.008,579.831 232.984,571.552 207.636,593.062 			"/>
			
				<rect x="256.074" y="539.551" transform="matrix(-0.7626 0.6469 -0.6469 -0.7626 833.1973 784.1456)" fill="#FFFFFF" width="33.24" height="10.856"/>
			
				<rect x="304.95" y="498.084" transform="matrix(-0.7625 0.6469 -0.6469 -0.7625 892.522 679.4245)" fill="#FFFFFF" width="33.241" height="10.856"/>
			
				<rect x="353.827" y="456.617" transform="matrix(-0.7625 0.647 -0.647 -0.7625 951.8466 574.6967)" fill="#FFFFFF" width="33.241" height="10.854"/>
			
				<rect x="402.702" y="415.149" transform="matrix(-0.7625 0.647 -0.647 -0.7625 1011.1628 469.9907)" fill="#FFFFFF" width="33.243" height="10.854"/>
			
				<rect x="451.579" y="373.681" transform="matrix(-0.7625 0.6469 -0.6469 -0.7625 1070.4817 365.2877)" fill="#FFFFFF" width="33.243" height="10.853"/>
			
				<rect x="500.456" y="332.214" transform="matrix(-0.7625 0.647 -0.647 -0.7625 1129.7983 260.5606)" fill="#FFFFFF" width="33.242" height="10.852"/>
			
				<rect x="549.332" y="290.747" transform="matrix(-0.7625 0.647 -0.647 -0.7625 1189.1165 155.8487)" fill="#FFFFFF" width="33.244" height="10.851"/>
			
				<rect x="598.209" y="249.28" transform="matrix(-0.7625 0.647 -0.647 -0.7625 1248.4341 51.1391)" fill="#FFFFFF" width="33.244" height="10.85"/>
			
				<rect x="647.085" y="207.811" transform="matrix(-0.7625 0.647 -0.647 -0.7625 1307.7412 -53.5907)" fill="#FFFFFF" width="33.243" height="10.85"/>
		</g>
	</g>
</g>
</svg>
